<?xml version="1.0" encoding="utf-8"?>
<!-- Generator: Adobe Illustrator 21.1.0, SVG Export Plug-In . SVG Version: 6.00 Build 0)  -->
<svg version="1.1" id="Layer_1" xmlns="http://www.w3.org/2000/svg" xmlns:xlink="http://www.w3.org/1999/xlink" x="0px" y="0px"
	 width="202.9px" height="36px" viewBox="0 0 202.9 36" style="enable-background:new 0 0 202.9 36;" xml:space="preserve">
<style type="text/css">
	.st0{fill:#FFFFFF;}
</style>
<title>usc-linear-desk-white3</title>
<g>
	<g>
		<path class="st0" d="M104.9,31.9v-9.8h3.2c0.5,0,1.1,0.1,1.6,0.2c0.4,0.1,0.8,0.3,1.1,0.5c0.3,0.2,0.5,0.5,0.6,0.8
			c0.1,0.4,0.2,0.7,0.2,1.1c0,0.2,0,0.5-0.1,0.7l-0.3,0.6c-0.1,0.2-0.3,0.4-0.6,0.5c-0.2,0.2-0.5,0.3-0.8,0.4
			c0.6,0.1,1.2,0.4,1.6,0.8c0.3,0.4,0.5,0.9,0.5,1.4c0,0.4-0.1,0.7-0.2,1.1c-0.2,0.3-0.4,0.6-0.7,0.9c-0.4,0.2-0.7,0.4-1.1,0.6
			c-0.5,0.1-1,0.2-1.5,0.2L104.9,31.9z M106.5,26.4h1.6c0.5,0.1,1.1-0.1,1.5-0.4c0.3-0.3,0.5-0.7,0.5-1.1c0-0.5-0.2-0.9-0.5-1.2
			c-0.5-0.3-1-0.4-1.5-0.4h-1.7L106.5,26.4L106.5,26.4z M106.5,27.5v3.1h2c0.3,0,0.6,0,0.9-0.1l0.6-0.3c0.2-0.1,0.3-0.3,0.3-0.5
			c0.1-0.2,0.1-0.4,0.1-0.6c0-0.4-0.2-0.8-0.5-1.1c-0.4-0.3-1-0.5-1.5-0.4L106.5,27.5L106.5,27.5z"/>
	</g>
	<g>
		<path class="st0" d="M115.6,33.8c0,0.1-0.1,0.2-0.2,0.2c-0.1,0-0.2,0.1-0.3,0.1H114l1.3-2.8l-2.8-6.4h1.3c0.1,0,0.2,0,0.3,0.1
			c0.1,0.1,0.1,0.1,0.1,0.2l1.6,3.9c0.1,0.2,0.1,0.5,0.2,0.7c0-0.1,0.1-0.2,0.1-0.3s0.1-0.2,0.1-0.3l1.6-3.9c0-0.1,0.1-0.1,0.2-0.2
			c0.1-0.1,0.1-0.1,0.2-0.1h1.2L115.6,33.8z"/>
	</g>
	<g>
		<path class="st0" d="M128.8,23.8c0,0.1-0.1,0.1-0.2,0.2s-0.1,0.1-0.2,0.1c-0.1,0-0.2,0-0.3-0.1c-0.1-0.1-0.2-0.2-0.4-0.2
			c-0.2,0-0.3-0.2-0.6-0.2s-0.5-0.1-0.8-0.1c-0.2,0-0.5,0-0.7,0.1c-0.2,0.1-0.3,0.2-0.5,0.3c-0.1,0.1-0.2,0.3-0.3,0.4
			c-0.1,0.2-0.1,0.3-0.1,0.5c0,0.2,0.1,0.4,0.2,0.6c0.1,0.2,0.3,0.3,0.5,0.4c0.2,0.1,0.5,0.2,0.7,0.3c0.3,0.1,0.5,0.2,0.8,0.3
			c0.3,0.1,0.5,0.2,0.8,0.3c0.3,0.1,0.5,0.3,0.7,0.5c0.2,0.2,0.4,0.4,0.5,0.7c0.1,0.3,0.2,0.7,0.2,1c0,0.4-0.1,0.8-0.2,1.2
			c-0.1,0.4-0.3,0.7-0.6,1c-0.3,0.3-0.6,0.5-1,0.7c-0.4,0.2-0.9,0.2-1.4,0.2c-0.3,0-0.6,0-0.9-0.1c-0.3-0.1-0.6-0.1-0.8-0.3
			s-0.5-0.2-0.8-0.4s-0.4-0.3-0.6-0.5l0.5-0.8c0-0.1,0.1-0.1,0.2-0.1s0.1-0.1,0.2-0.1c0.1,0,0.2,0,0.3,0.1c0.2,0.1,0.3,0.2,0.5,0.3
			l0.6,0.3c0.3,0.1,0.6,0.1,0.9,0.1c0.5,0.1,0.9-0.1,1.3-0.4c0.3-0.3,0.5-0.7,0.5-1.2c0-0.2-0.1-0.5-0.2-0.7
			c-0.1-0.2-0.3-0.3-0.5-0.4c-0.2-0.1-0.5-0.2-0.7-0.3c-0.3-0.1-0.5-0.2-0.8-0.3c-0.3-0.1-0.5-0.2-0.8-0.3c-0.5-0.3-0.9-0.7-1.2-1.2
			c-0.1-0.4-0.2-0.7-0.2-1.1c0-0.3,0.1-0.7,0.2-1c0.1-0.3,0.3-0.7,0.6-0.9c0.3-0.3,0.6-0.5,1-0.6c0.4-0.2,0.9-0.2,1.3-0.2
			c0.5,0,1,0.1,1.5,0.3c0.5,0.1,0.9,0.4,1.2,0.8L128.8,23.8z"/>
	</g>
	<g>
		<path class="st0" d="M130.7,34.2V25h0.9c0.2,0,0.3,0.1,0.4,0.3l0.1,0.7c0.1-0.2,0.3-0.3,0.5-0.5s0.3-0.3,0.5-0.4
			c0.2-0.1,0.4-0.2,0.6-0.2c0.2-0.1,0.5-0.1,0.7-0.1c0.4,0,0.7,0.1,1.1,0.2c0.3,0.2,0.6,0.4,0.8,0.7c0.2,0.3,0.4,0.7,0.5,1.1
			c0.1,0.5,0.2,1,0.2,1.5c0,0.5-0.1,0.9-0.2,1.4c-0.1,0.4-0.3,0.8-0.6,1.1c-0.3,0.3-0.6,0.6-0.9,0.8c-0.4,0.2-0.8,0.3-1.2,0.3
			c-0.3,0-0.7-0.1-1-0.2c-0.3-0.1-0.6-0.3-0.8-0.5v2.9C132.3,34.1,130.7,34.2,130.7,34.2z M133.8,26c-0.3,0-0.7,0.1-1,0.2
			c-0.3,0.2-0.5,0.4-0.7,0.7v3.2c0.2,0.3,0.4,0.5,0.7,0.6c0.2,0.1,0.5,0.2,0.8,0.2c0.5,0,1-0.2,1.3-0.6c0.4-0.6,0.5-1.2,0.5-1.9
			c0-0.4,0-0.7-0.1-1.1c-0.1-0.2-0.2-0.5-0.3-0.7c-0.1-0.2-0.3-0.3-0.5-0.4C134.3,26,134.1,25.9,133.8,26L133.8,26z"/>
		<path class="st0" d="M141.3,24.8c0.5,0,1,0.1,1.4,0.3c0.4,0.2,0.8,0.4,1.1,0.7c0.3,0.3,0.5,0.7,0.7,1.1c0.2,0.5,0.2,1,0.2,1.5
			c0,0.5-0.1,1-0.2,1.5c-0.2,0.4-0.4,0.8-0.7,1.1c-0.3,0.3-0.7,0.6-1.1,0.7c-0.4,0.2-0.9,0.3-1.4,0.3c-0.5,0-1-0.1-1.4-0.3
			c-0.4-0.2-0.8-0.4-1.1-0.7c-0.3-0.3-0.5-0.7-0.7-1.1c-0.2-0.5-0.2-1-0.2-1.5c0-0.5,0.1-1,0.2-1.5c0.2-0.4,0.4-0.8,0.7-1.1
			c0.3-0.3,0.7-0.6,1.1-0.7C140.3,24.9,140.8,24.7,141.3,24.8z M141.3,30.8c0.5,0,1.1-0.2,1.4-0.6c0.3-0.5,0.5-1.1,0.5-1.8
			c0-0.6-0.1-1.3-0.5-1.8c-0.7-0.8-2-0.8-2.7-0.1c0,0,0,0-0.1,0.1c-0.4,0.5-0.5,1.2-0.5,1.8c0,0.6,0.1,1.3,0.5,1.8
			C140.3,30.6,140.8,30.8,141.3,30.8z"/>
		<path class="st0" d="M146.1,31.9V25h0.8c0.2,0,0.3,0,0.3,0.1c0.1,0.1,0.1,0.2,0.1,0.3l0.1,0.9c0.2-0.4,0.5-0.7,0.8-1
			c0.3-0.3,0.7-0.4,1.1-0.4c0.1,0,0.3,0,0.4,0.1c0.1,0.1,0.2,0.1,0.4,0.2l-0.1,1.1c0,0.1,0,0.1-0.1,0.2H149c-0.2,0-0.4,0-0.5,0.1
			c-0.2,0.1-0.3,0.1-0.4,0.3c-0.1,0.1-0.2,0.2-0.3,0.4c-0.1,0.2-0.2,0.4-0.3,0.6v4.3h-1.4L146.1,31.9z"/>
		<path class="st0" d="M153.3,32c-0.5,0-1-0.2-1.3-0.5c-0.3-0.4-0.5-0.9-0.5-1.4v-4h-0.8c-0.1,0-0.2,0-0.2-0.1s-0.1-0.1-0.1-0.2
			v-0.6l1.1-0.2l0.3-2c0-0.1,0.1-0.1,0.1-0.2s0.1-0.1,0.2-0.1h0.7V25h1.9v1h-1.8v3.9c0,0.2,0.1,0.4,0.2,0.6c0.1,0.1,0.3,0.2,0.5,0.2
			h0.3c0.1,0,0.1,0,0.2-0.1c0.1,0,0.1-0.1,0.2-0.1h0.1c0.1,0,0.1,0,0.2,0.1l0.4,0.7c-0.2,0.2-0.5,0.4-0.8,0.5
			C153.9,31.9,153.6,31.9,153.3,32z"/>
		<path class="st0" d="M160.1,26.2c0,0.1,0,0.1-0.1,0.1l0,0h-0.2c-0.1,0-0.2,0-0.2-0.1s-0.2-0.1-0.3-0.2s-0.3-0.1-0.4-0.2
			s-0.4-0.1-0.6-0.1c-0.2,0-0.3,0-0.5,0.1c-0.2,0-0.3,0.1-0.4,0.2c-0.1,0.1-0.2,0.2-0.2,0.3c-0.1,0.1-0.1,0.2-0.1,0.3
			c0,0.2,0,0.3,0.1,0.4c0.1,0.1,0.2,0.2,0.4,0.3c0.2,0.1,0.4,0.1,0.6,0.2c0.2,0.1,0.4,0.1,0.6,0.2l0.6,0.3l0.6,0.3
			c0.2,0.1,0.3,0.3,0.4,0.5c0.1,0.2,0.1,0.5,0.1,0.7c0,0.3-0.1,0.6-0.2,0.9c-0.1,0.3-0.3,0.5-0.5,0.7c-0.2,0.2-0.5,0.4-0.8,0.5
			c-0.4,0.1-0.8,0.2-1.2,0.2c-0.2,0-0.5,0-0.7-0.1c-0.2,0-0.4-0.1-0.6-0.2l-0.6-0.3c-0.2-0.1-0.3-0.2-0.5-0.3l0.5-0.3
			c0-0.1,0.1-0.1,0.2-0.2s0.1-0.1,0.2-0.1c0.1,0,0.2,0,0.3,0.1c0.1,0.1,0.2,0.1,0.3,0.2s0.3,0.1,0.5,0.2c0.2,0.1,0.5,0.1,0.7,0.1
			c0.2,0,0.4,0,0.6-0.1c0.2-0.1,0.3-0.1,0.4-0.2s0.2-0.2,0.2-0.3s0.1-0.2,0.1-0.4s0-0.3-0.1-0.4c-0.1-0.1-0.2-0.2-0.4-0.3
			c-0.2-0.1-0.4-0.2-0.6-0.2c-0.2-0.1-0.4-0.1-0.6-0.2l-0.6-0.3c-0.2-0.1-0.4-0.2-0.6-0.4c-0.2-0.1-0.3-0.3-0.4-0.5
			c-0.1-0.3-0.1-0.5-0.1-0.8c0-0.3,0.1-0.5,0.2-0.8c0.1-0.3,0.3-0.5,0.5-0.7c0.3-0.2,0.5-0.4,0.8-0.5c0.4-0.1,0.7-0.2,1.1-0.2
			c0.4,0,0.9,0.1,1.3,0.2c0.4,0.1,0.7,0.3,1,0.6L160.1,26.2z"/>
	</g>
	<g>
		<path class="st0" d="M174.1,27c0,0.7-0.1,1.4-0.4,2c-0.5,1.1-1.4,2-2.5,2.5c-0.6,0.2-1.3,0.4-2,0.4h-3.7v-9.8h3.7
			c0.7,0,1.4,0.1,2,0.4c1.1,0.5,2,1.4,2.5,2.5C173.9,25.6,174.1,26.3,174.1,27z M172.5,27c0-0.5-0.1-1-0.2-1.5
			c-0.1-0.4-0.3-0.8-0.6-1.1c-0.3-0.3-0.6-0.5-1-0.7c-0.4-0.2-0.9-0.2-1.4-0.2h-2.1v7.1h2.1c0.5,0,0.9-0.1,1.4-0.2
			c0.4-0.2,0.7-0.4,1-0.7c0.3-0.3,0.5-0.7,0.6-1.1C172.4,28,172.5,27.5,172.5,27z"/>
	</g>
	<g>
		<path class="st0" d="M177.2,22.9c0,0.1,0,0.3-0.1,0.4c-0.1,0.1-0.1,0.2-0.2,0.3s-0.2,0.2-0.3,0.2s-0.2,0.1-0.4,0.1
			c-0.1,0-0.3,0-0.4-0.1c-0.1-0.1-0.2-0.1-0.3-0.2s-0.2-0.2-0.2-0.3s-0.1-0.2-0.1-0.4c0-0.1,0-0.3,0.1-0.4c0.1-0.1,0.1-0.2,0.2-0.3
			s0.2-0.2,0.3-0.2s0.2-0.1,0.4-0.1c0.1,0,0.3,0,0.4,0.1c0.1,0.1,0.2,0.1,0.3,0.2s0.2,0.2,0.2,0.3S177.2,22.7,177.2,22.9z M177,25
			v6.9h-1.5V25H177z"/>
	</g>
	<g>
		<path class="st0" d="M178.8,31.9V25h0.8c0.2,0,0.3,0,0.3,0.1c0.1,0.1,0.1,0.2,0.1,0.3l0.1,0.9c0.2-0.4,0.5-0.7,0.8-1
			c0.3-0.3,0.7-0.4,1.1-0.4c0.1,0,0.3,0,0.4,0.1c0.1,0.1,0.2,0.1,0.4,0.2l-0.1,1.1c0,0.1,0,0.1-0.1,0.2h-0.9c-0.2,0-0.4,0-0.5,0.1
			c-0.2,0.1-0.3,0.1-0.4,0.3c-0.1,0.1-0.2,0.2-0.3,0.4c-0.1,0.2-0.2,0.4-0.3,0.6v4.3h-1.4L178.8,31.9z"/>
	</g>
	<g>
		<path class="st0" d="M186.5,24.8c0.4,0,0.8,0.1,1.2,0.2c0.4,0.1,0.7,0.3,0.9,0.6c0.3,0.3,0.5,0.6,0.6,1c0.1,0.4,0.2,0.9,0.2,1.3
			c0,0.2,0,0.4-0.1,0.5c0,0.1-0.1,0.1-0.3,0.1h-4.4c0,0.3,0.1,0.7,0.2,1c0.1,0.3,0.2,0.5,0.4,0.7c0.2,0.2,0.4,0.3,0.6,0.4
			c0.3,0.1,0.5,0.1,0.8,0.1c0.2,0,0.5,0,0.7-0.1c0.2-0.1,0.4-0.1,0.5-0.2c0.1-0.1,0.2-0.2,0.4-0.2c0.2-0.1,0.4-0.1,0.6,0l0.4,0.5
			c-0.2,0.2-0.4,0.4-0.6,0.5c-0.2,0.2-0.4,0.3-0.7,0.3c-0.2,0.1-0.5,0.2-0.8,0.2c-0.3,0-0.5,0.1-0.8,0.1c-0.4,0-0.9-0.1-1.3-0.2
			c-0.4-0.2-0.8-0.4-1.1-0.7c-0.3-0.3-0.6-0.8-0.7-1.2c-0.2-0.5-0.3-1.1-0.3-1.6c0-0.4,0.1-0.9,0.2-1.3c0.2-0.4,0.4-0.7,0.6-1.1
			c0.3-0.3,0.6-0.6,1-0.7C185.3,24.9,185.9,24.8,186.5,24.8z M186.5,25.9c-0.5,0-0.9,0.2-1.2,0.5c-0.3,0.4-0.5,0.8-0.6,1.3h3.4
			c0-0.2,0-0.5-0.1-0.7c-0.1-0.2-0.2-0.3-0.3-0.5c-0.1-0.2-0.3-0.3-0.5-0.4C187,25.9,186.8,25.8,186.5,25.9z"/>
		<path class="st0" d="M195.7,26.3c0,0.1,0,0.1-0.1,0.1l0,0h-0.2c-0.1,0-0.2,0-0.2-0.1s-0.2-0.1-0.3-0.2s-0.3-0.1-0.4-0.2
			c-0.2-0.1-0.4-0.1-0.6-0.1c-0.3,0-0.6,0.1-0.8,0.2c-0.2,0.1-0.4,0.3-0.6,0.5c-0.2,0.2-0.3,0.5-0.4,0.8c-0.1,0.3-0.1,0.7-0.1,1
			c0,0.3,0,0.7,0.1,1c0.1,0.3,0.2,0.6,0.4,0.8c0.2,0.2,0.4,0.4,0.6,0.5c0.2,0.1,0.5,0.2,0.8,0.2c0.2,0,0.5,0,0.7-0.1
			c0.2-0.1,0.3-0.1,0.4-0.2s0.2-0.2,0.3-0.2c0.2-0.1,0.4-0.1,0.6,0l0.4,0.5c-0.2,0.2-0.4,0.4-0.6,0.5c-0.2,0.1-0.4,0.3-0.6,0.3
			c-0.2,0.1-0.5,0.2-0.7,0.2c-0.2,0-0.5,0.1-0.7,0.1c-0.4,0-0.8-0.1-1.2-0.2c-0.4-0.2-0.7-0.4-1-0.7c-0.3-0.3-0.5-0.7-0.7-1.1
			c-0.2-0.5-0.2-1-0.2-1.5c0-0.5,0.1-0.9,0.2-1.4c0.1-0.4,0.3-0.8,0.6-1.1c0.3-0.3,0.6-0.6,1-0.7c0.4-0.2,0.9-0.3,1.4-0.3
			c0.4,0,0.9,0.1,1.3,0.2c0.4,0.2,0.7,0.4,1,0.7L195.7,26.3z"/>
		<path class="st0" d="M199.5,32c-0.5,0-1-0.2-1.3-0.5c-0.3-0.4-0.5-0.9-0.5-1.4v-4h-0.8c-0.1,0-0.1,0-0.2-0.1s-0.1-0.1-0.1-0.2
			v-0.6l1.1-0.2l0.3-2c0-0.1,0.1-0.1,0.1-0.2s0.1-0.1,0.2-0.1h0.7V25h1.9v1H199v3.9c0,0.2,0.1,0.4,0.2,0.6c0.1,0.1,0.3,0.2,0.5,0.2
			h0.3c0.1,0,0.1,0,0.2-0.1c0.1,0,0.1-0.1,0.2-0.1h0.1c0.1,0,0.1,0,0.2,0.1l0.4,0.7c-0.2,0.2-0.5,0.4-0.8,0.5
			C200.1,31.9,199.8,31.9,199.5,32z"/>
	</g>
</g>
<g>
	<path id="Path_1325" class="st0" d="M39.1,26.4c2.7,1.8,5.8,2.7,9,2.5c3.9,0,6.7-1.4,6.7-3.5c0-2.2-1.9-3.2-7.6-4.1
		c-7.1-1-11.3-3.2-11.3-10.1c0-6.2,5.8-10.8,13.7-10.8c5.2,0,8.8,1,12.3,3.2l-4.2,5.5C55,7.7,52,6.9,48.9,7c-3.2,0-6,1.5-6,3.7
		c0,2.5,1.9,3.3,8.1,4.2c7.8,1.2,11.4,4.1,11.4,9.5c0,6.9-6.7,11.1-14.5,11.1c-4.8,0-9.4-0.8-13.4-3.7L39.1,26.4L39.1,26.4z"/>
	<path id="Path_1326" class="st0" d="M15.4,35.5c-9,0-14.4-5-14.4-15.2V1.5h7.4v18.3c0,5.8,2.9,8.7,7.6,8.7c4.6,0,7.5-3,7.5-8.5V1.5
		h7.4V20C30.9,30.2,24.5,35.5,15.4,35.5L15.4,35.5z"/>
	<path id="Path_1327" class="st0" d="M83,35.5c-9.6,0-16.5-6.5-16.5-17.1C66.3,8.7,74,0.7,83.7,0.5c0.1,0,0.3,0,0.4,0
		c6.3,0,10.3,2.1,12.8,4.6l-4.4,5.5c-2.2-2.2-5.3-3.4-8.4-3.2c-5.5,0-9.8,4.5-9.8,10.4c0,5.7,3.5,10.7,9.8,10.7
		c3.3,0.1,6.5-1.1,8.8-3.5l4.2,4.8C93.6,33.4,89.6,35.5,83,35.5L83,35.5z"/>
</g>
</svg>
