<?xml version="1.0" encoding="utf-8"?>
<!-- Generator: Adobe Illustrator 21.1.0, SVG Export Plug-In . SVG Version: 6.00 Build 0)  -->
<svg version="1.1" id="Layer_1" xmlns="http://www.w3.org/2000/svg" xmlns:xlink="http://www.w3.org/1999/xlink" x="0px" y="0px"
	 width="166px" height="75px" viewBox="0 0 166 75" style="enable-background:new 0 0 166 75;" xml:space="preserve">
<style type="text/css">
	.st0{fill:#0000ED;}
	.st1{fill:#ED0000;}
	.st2{fill:#FFFFFF;}
</style>
<g>
	<polygon class="st0" points="165.6,35.3 165.6,0.5 0.4,0.5 0.4,35.3 	"/>
	<polygon class="st1" points="165.6,74.5 165.6,39.7 0.4,39.7 0.4,74.5 	"/>
	<path class="st2" d="M47.7,5.5h-9.4L34,30.4h7.1l1.3-7.8h3.7c8.9,0,11.3-5.4,11.3-9.9C57.4,6.8,52.6,5.5,47.7,5.5z M46.3,17.5h-2.9
		l1.1-6.9h3.1c1.4,0,3.1,0.6,3.1,3C50.7,15.5,49.6,17.5,46.3,17.5z M73.1,4.9c-9.4,0-13.7,7.4-13.7,14.8c0,7.3,4.4,11.3,11.9,11.3
		c9.4,0,13.7-7.4,13.7-14.7C84.9,9,80.6,4.9,73.1,4.9z M71.4,25.3c-2.5,0-4.6-1.4-4.6-6.1c0-4.3,1.6-8.7,6.2-8.7
		c2.5,0,4.6,1.4,4.6,6.1C77.6,20.9,75.9,25.3,71.4,25.3z M110.4,12.3c0-5.7-4.7-6.8-9.3-6.8H91.1l-4.3,24.9h7.1l1.6-9.1h3l3.6,9.1
		h7.3L105,20.3C108.8,19.1,110.4,15.7,110.4,12.3z M99.5,16.5h-3.2l1.1-6.1h3.2c1.4,0,3,0.5,3,2.7C103.6,14.5,102.9,16.5,99.5,16.5z
		 M133.6,11.2h-6.8l-3.3,19.2h-7.1l3.3-19.2h-6.8l0.9-5.7h20.8C134.6,5.5,133.6,11.2,133.6,11.2z M133.8,28l2.5-4.7
		c2.2,1.4,4.7,2.1,7.2,2.1c1.7,0,4-0.3,4-2.3c0-1.1-0.7-1.7-2.5-2.1l-2.4-0.6c-3.6-0.9-6.3-2.8-6.3-6.7c0-3.1,1.5-5.4,3.6-6.9
		c2.1-1.5,4.8-1.8,6.7-1.8c2.8,0,6.4,0.8,8.9,2.8l-2.5,4.7c-2.7-1.8-4.9-2.1-6.8-2.1c-1.6,0-3.3,0.4-3.3,2.1c0,1,0.6,1.5,2.7,2.1
		l2.9,0.8c4.1,1.1,6.1,3.5,6.1,6.6c0,5.4-4.3,9-11,9C140.4,30.9,136.6,30.3,133.8,28L133.8,28z M10.5,28l2.5-4.7
		c2.2,1.4,4.7,2.1,7.2,2.1c1.7,0,4-0.3,4-2.3c0-1.1-0.7-1.7-2.5-2.1l-2.4-0.6c-3.6-0.9-6.3-2.8-6.3-6.7c0-3.1,1.5-5.4,3.6-6.9
		C18.6,5.3,21.4,5,23.3,5c2.8,0,6.4,0.8,8.9,2.8l-2.5,4.7c-2.7-1.8-4.9-2.1-6.8-2.1c-1.6,0-3.3,0.4-3.3,2.1c0,1,0.6,1.5,2.7,2.1
		l2.9,0.8c4.1,1.1,6.1,3.5,6.1,6.6c0,5.4-4.3,9-11,9C17.1,30.9,13.3,30.3,10.5,28L10.5,28z M32.7,46.5c-2.2-1.2-5.4-1.9-9-1.9h-8.1
		l-4.4,24.9h11.2c10.3,0,15-6.8,15-13.9C37.4,51.4,35.8,48.3,32.7,46.5L32.7,46.5z M22.5,64.3h-2.9l2.5-14.5h2.3
		c3,0,5.4,1.5,5.4,5.9C29.8,59.4,28.3,64.3,22.5,64.3z M39.7,69.5l4.4-24.9h7.4l-4.4,24.9H39.7z M104.7,58.5
		c0-6.2,3.5-14.5,13.7-14.5c6.2,0,9.9,2.8,11,7.2l-6.5,2.1c-0.7-2.8-2.3-3.6-4.7-3.6c-4.7,0-6,5.1-6,8.7c0,3.5,1.4,6,4.7,6
		c2.9,0,4.7-1.5,5.5-3.6l5.9,2.4c-1.6,3.5-5.2,6.9-11.7,6.9C109,70.1,104.7,66.1,104.7,58.5L104.7,58.5z M153.8,50.4h-7.4L143,69.5
		h-7.3l3.4-19.2h-7.4l1-5.7h22.1L153.8,50.4L153.8,50.4z M77.3,51.4c0-5.7-4.7-6.8-9.3-6.8H57.5l-4.4,24.9h7.3l1.6-9.1H65l3.6,9.1
		h7.7l-4.4-10.1C75.7,58.1,77.3,54.9,77.3,51.4L77.3,51.4z M66.1,55.7h-3.1l1.1-6.1h3.1c1.4,0,3,0.5,3,2.7
		C70.2,53.7,69.4,55.7,66.1,55.7L66.1,55.7z M90.8,50L90,54.2h9.3l-0.9,5.3h-9.3l-0.8,4.6h12.6l-0.9,5.3H80l4.4-24.9h19.5l-0.9,5.4
		L90.8,50z"/>
</g>
</svg>
